<svg width="24" height="24" viewBox="0 0 24 24" fill="none" xmlns="http://www.w3.org/2000/svg">
<path d="M23.8 13.154C23.768 13.1402 23.7338 13.1321 23.699 13.13C23.6286 13.1279 23.559 13.1445 23.497 13.178C23.437 13.206 23.405 13.258 23.37 13.314C23.283 13.442 23.22 13.582 23.144 13.714C23.037 13.901 22.898 14.065 22.764 14.229C22.629 14.385 22.478 14.52 22.34 14.669C22.312 14.696 22.268 14.712 22.233 14.696C22.205 14.68 22.197 14.64 22.201 14.608C22.241 14.228 22.276 13.845 22.324 13.47C22.344 13.298 22.367 13.134 22.387 12.958C22.415 12.711 22.443 12.471 22.474 12.223L22.708 10.399C22.728 10.271 22.74 10.027 22.573 9.87901C22.5085 9.81823 22.4274 9.77788 22.34 9.76301C22.2513 9.75806 22.1631 9.7789 22.086 9.82301C21.86 9.98301 21.789 10.327 21.721 10.583C21.579 11.186 21.543 11.824 21.25 12.387C21.1927 12.4984 21.1251 12.6042 21.048 12.703C20.9977 12.774 20.9347 12.8351 20.862 12.883C20.79 12.9318 20.7015 12.9501 20.616 12.934C20.5635 12.9192 20.515 12.8929 20.4739 12.8571C20.4327 12.8214 20.4 12.7769 20.378 12.727C20.3365 12.624 20.3151 12.514 20.315 12.403C20.2995 11.8646 20.3808 11.3277 20.555 10.818C20.6 10.686 20.644 10.566 20.659 10.435C20.687 10.279 20.687 10.055 20.545 9.91901C20.414 9.79101 20.208 9.73901 20.041 9.79101C19.847 9.84701 19.731 10.035 19.669 10.183C19.471 10.646 19.419 11.133 19.352 11.629C19.308 11.956 19.225 12.269 19.059 12.555C18.9016 12.8284 18.6975 13.0721 18.456 13.275C18.338 13.362 18.234 13.398 18.128 13.382C18.0685 13.3719 18.0122 13.3478 17.9639 13.3116C17.9155 13.2754 17.8765 13.2283 17.85 13.174C17.7993 13.0757 17.7671 12.969 17.755 12.859C17.7241 12.6552 17.7121 12.449 17.719 12.243C17.723 12.02 17.719 11.803 17.763 11.585C17.838 11.195 18.441 9.64801 18.571 9.24001C18.706 8.83301 18.833 8.41701 18.924 7.99401C19.004 7.61401 19.047 7.22701 19.034 6.84401C19.027 6.56701 18.964 6.26801 18.746 6.10801C18.6583 6.04844 18.5566 6.01269 18.4509 6.00428C18.3452 5.99586 18.2391 6.01507 18.143 6.06001C17.9483 6.1486 17.7883 6.29907 17.688 6.48801C17.588 6.67432 17.5121 6.87257 17.462 7.07801C17.3498 7.50281 17.261 7.93346 17.196 8.36801C17.125 8.79701 17.058 9.21601 16.99 9.63601C16.93 9.99101 16.784 11.25 16.729 11.516C16.669 11.788 16.554 12.056 16.428 12.303C16.297 12.571 16.17 12.839 16.02 13.094C15.9776 13.1799 15.9181 13.2561 15.845 13.318C15.765 13.378 15.663 13.406 15.575 13.366C15.473 13.318 15.429 13.19 15.409 13.074C15.334 12.639 15.397 12.199 15.481 11.772C15.564 11.341 15.921 9.37201 16 8.92101C16.099 8.38901 16.24 7.87101 16.285 7.33101C16.313 6.94301 16.375 6.45101 16.083 6.14401C15.968 6.00801 15.773 5.98401 15.643 6.00801C15.469 6.04401 15.333 6.18401 15.255 6.30401C15.155 6.43201 15.069 6.58401 14.997 6.77101C14.882 7.05501 14.811 7.38601 14.736 7.68101L14.704 7.81001C14.622 8.19267 14.56 8.58001 14.518 8.97201C14.4941 9.18228 14.4741 9.39298 14.458 9.60401C14.4507 9.70401 14.4417 9.80634 14.431 9.91101C14.431 9.99101 14.438 10.079 14.403 10.155C14.389 10.18 14.3715 10.2029 14.351 10.223C14.271 10.295 14.149 10.283 14.041 10.279C13.484 10.263 12.996 10.579 12.691 11.034C12.511 11.286 12.41 11.576 12.301 11.868C12.291 11.916 12.267 11.968 12.247 12.02C12.196 12.163 12.117 12.347 12.025 12.531C11.9339 12.6939 11.8278 12.8479 11.708 12.991C11.5919 13.1383 11.4634 13.2755 11.324 13.401C11.1785 13.5319 11.0008 13.6217 10.809 13.661C10.635 13.701 10.425 13.618 10.266 13.458C10.1399 13.3055 10.0675 13.1158 10.06 12.918C10.056 12.863 10.056 12.803 10.088 12.755C10.138 12.687 10.234 12.683 10.318 12.679C10.619 12.6548 10.9073 12.5469 11.1503 12.3676C11.3932 12.1882 11.5812 11.9445 11.693 11.664C11.831 11.324 11.871 10.966 11.815 10.618C11.7873 10.4461 11.7224 10.2823 11.625 10.138C11.527 9.99434 11.3895 9.88215 11.229 9.81501C10.936 9.67501 10.571 9.68801 10.219 9.81901C9.64402 10.051 9.26802 10.559 9.08502 11.381L9.06502 11.469C8.95102 11.956 8.83502 12.469 8.48302 12.823C8.35602 12.943 8.22202 12.986 8.11502 12.966C8.07102 12.962 8.03502 12.926 8.01202 12.891C7.91602 12.731 8.01502 12.359 8.16202 11.891C8.20112 11.7707 8.23449 11.6485 8.26202 11.525C8.27252 11.3532 8.23514 11.1818 8.15402 11.03C8.06725 10.8855 7.93705 10.7721 7.78202 10.706C7.63902 10.642 7.47202 10.646 7.31402 10.646H7.26702C7.22302 10.646 7.16402 10.646 7.11602 10.634C7.08343 10.6255 7.05323 10.6096 7.02774 10.5876C7.00226 10.5656 6.98217 10.538 6.96902 10.507C6.95605 10.4295 6.96153 10.35 6.98502 10.275C6.98902 10.255 6.99702 10.227 7.00102 10.203C7.02204 10.126 7.01763 10.0444 6.98844 9.9701C6.95924 9.89586 6.90683 9.83304 6.83902 9.79101C6.7696 9.74797 6.69085 9.72223 6.60941 9.71597C6.52797 9.7097 6.44621 9.72309 6.37102 9.75501C6.21411 9.82693 6.08592 9.94949 6.00702 10.103C5.92123 10.2475 5.88506 10.4161 5.90402 10.583C5.94402 10.713 5.97402 10.903 5.94702 11.058C5.89202 11.338 5.72502 11.568 5.56302 11.798C5.52302 11.848 5.49102 11.904 5.45602 11.958C5.25133 12.2578 5.0146 12.5345 4.75002 12.783C4.37802 13.118 3.94602 13.358 3.51802 13.453C2.77302 13.618 2.01202 13.393 1.60802 12.719C1.38602 12.339 1.28802 11.892 1.26002 11.453C1.19835 10.5925 1.34374 9.72976 1.68402 8.93701C2.01202 8.17701 2.50002 7.41701 3.39902 7.32301C3.75202 7.28301 4.15202 7.40601 4.31102 7.72301C4.42602 7.95301 4.38602 8.22901 4.31102 8.47301C4.23902 8.71701 4.13602 8.96301 4.13102 9.22301C4.12802 9.48301 4.25502 9.76301 4.50102 9.83901C4.73902 9.91101 4.99602 9.75901 5.13502 9.54901C5.27302 9.33901 5.32102 9.08901 5.38002 8.84501C5.52276 8.27193 5.74562 7.72185 6.04202 7.21101C6.18102 6.97501 6.33902 6.72301 6.29602 6.45101C6.27753 6.35443 6.23301 6.26473 6.16728 6.1916C6.10154 6.11846 6.01709 6.06466 5.92302 6.03601C5.82915 6.00945 5.72984 6.00881 5.63564 6.03416C5.54145 6.05952 5.45587 6.10992 5.38802 6.18001C5.25402 6.32801 5.18202 6.55101 5.00102 6.61001C4.83102 6.67001 4.65102 6.55501 4.49402 6.47601C3.89402 6.15601 3.15802 6.16401 2.53102 6.42801C1.89702 6.67801 1.38502 7.16301 1.00502 7.72201C0.46202 8.53001 0.0980199 9.50801 0.0220199 10.48C-0.00498006 10.82 -0.00898006 11.175 0.0220199 11.518C0.0580199 11.978 0.12202 12.372 0.23602 12.724C0.37502 13.147 0.55302 13.514 0.78302 13.818C1.04902 14.158 1.37002 14.418 1.72302 14.565C2.09502 14.713 2.50702 14.785 2.91502 14.773C3.32179 14.7544 3.72127 14.6584 4.09202 14.49C4.46486 14.3137 4.8104 14.0847 5.11802 13.81C5.42702 13.55 5.71202 13.251 5.95802 12.92C6.12002 12.696 6.26669 12.46 6.39802 12.212C6.46272 12.0869 6.52211 11.9591 6.57602 11.829C6.62002 11.725 6.66302 11.614 6.77802 11.569C6.83402 11.526 6.92802 11.549 6.98002 11.582C7.04402 11.622 7.09502 11.657 7.11502 11.717C7.16302 11.833 7.13502 11.949 7.11102 12.049V12.061C7.08302 12.161 7.05602 12.264 7.02002 12.364C6.88002 12.788 6.78202 13.175 6.86002 13.559C6.90502 13.766 6.98802 13.946 7.11002 14.086C7.2422 14.23 7.42042 14.3233 7.61402 14.35C7.86002 14.39 8.12402 14.322 8.33902 14.218C8.48369 14.1493 8.61602 14.0627 8.73602 13.958C8.79602 13.898 8.85802 13.838 8.91002 13.774C8.95402 13.714 8.99702 13.627 9.08802 13.631C9.1094 13.6334 9.13002 13.6403 9.14848 13.6514C9.16695 13.6624 9.18282 13.6773 9.19502 13.695C9.22302 13.726 9.23502 13.766 9.25502 13.81C9.48502 14.33 10.031 14.65 10.59 14.65H10.66C10.93 14.65 11.216 14.557 11.45 14.43C11.72 14.29 11.93 14.082 12.15 13.878C12.17 13.862 12.195 13.838 12.223 13.834C12.258 13.826 12.293 13.846 12.322 13.878C12.3437 13.9081 12.3597 13.9421 12.369 13.978C12.504 14.318 12.829 14.578 13.193 14.638C13.3746 14.6661 13.5604 14.6482 13.7333 14.586C13.9063 14.5238 14.0609 14.4193 14.183 14.282C14.239 14.222 14.287 14.154 14.35 14.106C14.414 14.062 14.5 14.03 14.572 14.062C14.679 14.102 14.707 14.226 14.754 14.33C14.861 14.565 15.111 14.701 15.369 14.705C15.658 14.705 15.923 14.557 16.133 14.365C16.328 14.182 16.486 13.966 16.649 13.755C16.6761 13.7149 16.7125 13.682 16.755 13.659C16.795 13.635 16.851 13.631 16.885 13.659C16.918 13.683 16.93 13.719 16.945 13.75C17.108 14.15 17.532 14.402 17.955 14.398C18.372 14.394 18.764 14.174 19.058 13.882C19.153 13.79 19.252 13.682 19.378 13.672C19.518 13.655 19.585 13.786 19.632 13.892C19.704 14.034 19.747 14.13 19.882 14.23C20.04 14.346 20.242 14.382 20.429 14.33C20.599 14.29 20.769 14.174 20.899 14.014C20.971 13.926 21.011 13.81 21.089 13.73C21.181 13.643 21.221 13.758 21.225 13.83C21.2397 13.9473 21.2424 14.0647 21.233 14.182C21.217 14.418 21.181 14.653 21.153 14.885C21.142 14.953 21.133 15.021 21.09 15.073C21.03 15.141 20.924 15.153 20.837 15.137C20.7306 15.1219 20.6234 15.1126 20.516 15.109L20.376 15.093C20.175 15.081 19.976 15.057 19.766 15.049H19.581C19.177 15.049 18.848 15.097 18.551 15.209C18.071 15.396 17.699 15.779 17.548 16.227C17.4774 16.4326 17.4596 16.6527 17.496 16.867C17.536 17.07 17.626 17.27 17.778 17.454C18.043 17.769 18.458 17.969 18.927 17.997C19.335 18.017 19.779 17.933 20.219 17.737C21.067 17.37 21.701 16.643 21.915 15.787C21.915 15.767 21.925 15.748 21.938 15.744C22.2367 15.6393 22.5077 15.4967 22.751 15.316C22.996 15.129 23.218 14.917 23.401 14.673C23.491 14.553 23.5754 14.4297 23.654 14.303C23.724 14.178 23.784 14.046 23.856 13.923C23.9191 13.8269 23.9633 13.7197 23.986 13.607C24.0016 13.5519 24.0053 13.4942 23.9966 13.4376C23.988 13.381 23.9673 13.3269 23.936 13.279C23.9076 13.2227 23.8596 13.1786 23.801 13.155M10.121 11.525C10.138 11.454 10.166 11.385 10.181 11.319C10.2426 11.1388 10.3309 10.9689 10.443 10.815C10.483 10.767 10.523 10.715 10.578 10.679C10.6043 10.6591 10.6343 10.6447 10.6662 10.6364C10.6981 10.6282 10.7314 10.6263 10.764 10.631C10.871 10.651 10.947 10.759 10.966 10.867C10.998 11.047 10.926 11.263 10.852 11.422C10.7832 11.583 10.6769 11.7253 10.542 11.837C10.482 11.881 10.428 11.925 10.364 11.953C10.336 11.961 10.301 11.981 10.249 11.981H10.233C10.178 11.981 10.119 11.953 10.107 11.893C10.0835 11.7712 10.0886 11.6455 10.122 11.526M14.43 11.342C14.426 11.414 14.406 11.49 14.402 11.565C14.3818 11.8243 14.3818 12.0847 14.402 12.344C14.414 12.496 14.449 12.644 14.386 12.788C14.3409 12.9285 14.2673 13.0581 14.1697 13.1688C14.0722 13.2794 13.9528 13.3687 13.819 13.431C13.7422 13.4668 13.6587 13.4858 13.574 13.487L13.514 13.483C13.394 13.483 13.3 13.391 13.249 13.303C13.2007 13.2186 13.1669 13.1266 13.149 13.031C13.0721 12.6573 13.097 12.2698 13.221 11.909C13.301 11.689 13.423 11.474 13.601 11.315C13.7534 11.1695 13.9535 11.0842 14.164 11.075C14.2382 11.0701 14.3117 11.0929 14.37 11.139C14.41 11.183 14.43 11.243 14.426 11.303C14.4294 11.309 14.4315 11.3157 14.4322 11.3226C14.4329 11.3295 14.4322 11.3364 14.43 11.343M20.86 15.996C20.845 16.04 20.8 16.1 20.78 16.136C20.738 16.216 20.678 16.299 20.619 16.371C20.5221 16.4811 20.4161 16.5828 20.302 16.675C20.064 16.855 19.799 16.986 19.525 17.062C19.3663 17.106 19.2027 17.1302 19.038 17.134H18.998C18.8106 17.1362 18.6283 17.0725 18.483 16.954C18.4025 16.892 18.3465 16.8034 18.325 16.704C18.3107 16.5999 18.327 16.4939 18.372 16.399C18.4491 16.2302 18.5838 16.0944 18.752 16.016C19.078 15.856 19.434 15.84 19.771 15.856C19.91 15.86 20.036 15.868 20.171 15.876C20.278 15.88 20.389 15.888 20.496 15.9C20.5534 15.9 20.61 15.904 20.666 15.912C20.71 15.916 20.758 15.908 20.801 15.92C20.861 15.924 20.868 15.956 20.86 15.996Z" fill="white"/>
</svg>
